<?xml version="1.0" encoding="utf-8"?>
<svg version="1.1" xmlns="http://www.w3.org/2000/svg" width="170" height="170" viewBox="0 0 170 170">
<rect fill="#DB2027" rx="19.75" ry="19.75" width="170" height="170"/>
<rect fill="#FFF" x="19" y="19" width="132" height="132"/>
<path d="M101.4,121.216c-3.667,0-7.223-0.273-10.567-0.811c-3.354-0.537-6.537-1.342-9.461-2.387l-0.91-0.326l1.377-12.148
	l1.549,0.746c3.064,1.482,6.059,2.588,8.899,3.289c2.832,0.703,5.627,1.059,8.307,1.059c4.21,0,7.614-0.863,10.119-2.568
	c2.391-1.627,3.553-3.701,3.553-6.342c0-4.162-5.331-9.162-15.42-14.461c-1.783-0.922-3.174-1.664-4.12-2.203
	c-4.198-2.246-7.571-5.051-9.998-8.329c-2.477-3.343-3.733-6.844-3.733-10.407c0-5.886,2.459-10.622,7.311-14.076
	c4.721-3.361,11.189-5.066,19.224-5.066c2.948,0,5.847,0.205,8.616,0.609c2.774,0.405,5.481,1.021,8.039,1.831l0.966,0.306
	l-1.403,11.28l-1.504-0.673c-2.27-1.018-4.638-1.792-7.039-2.304c-2.4-0.509-4.946-0.768-7.568-0.768
	c-4.373,0-7.802,0.741-10.195,2.204c-2.23,1.364-3.313,3.167-3.313,5.515c0,1.869,0.746,3.539,2.284,5.104
	c1.654,1.685,5.362,3.995,11.023,6.867c7.766,3.944,12.996,7.459,15.99,10.742c3.064,3.363,4.618,7.262,4.618,11.594
	c0,6.348-2.549,11.629-7.574,15.693C115.521,119.187,109.105,121.216,101.4,121.216z"/>
<path d="M52.604,121.316c-1.608,0-3.242-0.086-4.857-0.256c-1.623-0.17-3.224-0.428-4.758-0.766l-0.956-0.211v-11.428
	l1.617,0.559c1.083,0.377,2.144,0.662,3.155,0.848c0.997,0.186,2.061,0.275,3.165,0.275c3.796,0,6.437-1.178,8.073-3.605
	c1.717-2.545,2.587-6.936,2.587-13.049v-45.95h13.242V95.82c0,8.592-1.72,15.043-5.115,19.168
	C65.304,119.187,59.869,121.316,52.604,121.316z"/>
</svg>